<svg width="323" height="323" viewBox="0 0 323 323" fill="none" xmlns="http://www.w3.org/2000/svg">
<rect width="323" height="323" fill="#4384C1"/>
<path fill-rule="evenodd" clip-rule="evenodd" d="M296.198 80.0053C296.676 79.9704 297.15 80.1079 297.534 80.3926C298.741 81.2861 300.221 82.9114 301.449 84.6971C302.667 86.4682 303.838 88.6857 304.145 90.8106C304.194 91.1441 304.157 91.4845 304.038 91.8C303.909 92.1456 303.799 92.4357 303.705 92.6855C303.147 94.1609 303.124 94.2237 302.636 95.9501C302.037 98.0699 301.5 100.248 300.941 102.521C299.127 109.889 297.067 118.253 291.829 128.85L290.036 127.964L291.829 128.85C283.517 145.665 279.671 151.368 272.221 162.417C270.915 164.355 269.497 166.457 267.925 168.813C261.415 178.568 254.685 184.889 247.898 188.936C247.982 192.664 247.356 196.815 245.315 201.956C242.555 208.908 238.862 217.302 234.172 224.709C229.511 232.07 223.702 238.718 216.602 241.832C215.964 242.111 215.227 242.039 214.656 241.641C214.084 241.243 213.761 240.576 213.803 239.881C214.267 232.093 215.607 226.009 216.967 219.837C217.061 219.413 217.154 218.989 217.247 218.565C218.697 211.956 220.124 205.023 220.594 195.376C220.956 187.955 219.644 178.118 217.76 171.611C217.453 170.55 218.064 169.441 219.125 169.134C220.186 168.827 221.295 169.438 221.602 170.499C223.6 177.398 224.974 187.675 224.59 195.57C224.103 205.553 222.619 212.744 221.154 219.422C221.064 219.835 220.973 220.246 220.883 220.656C219.747 225.813 218.671 230.7 218.086 236.499C222.824 233.452 227.065 228.455 230.792 222.569C235.283 215.476 238.868 207.352 241.597 200.48C243.614 195.4 244.074 191.511 243.856 188.008C243.852 187.964 243.849 187.921 243.848 187.877C243.774 186.781 243.635 185.722 243.457 184.675C243.205 183.193 242.889 181.79 242.553 180.3C242.36 179.447 242.161 178.565 241.964 177.623C241.438 175.107 240.977 172.366 240.877 169.202V169.202C240.797 166.649 240.953 163.844 241.483 160.67C241.666 159.581 242.696 158.845 243.786 159.027C244.875 159.21 245.611 160.24 245.429 161.33C245.264 162.317 245.139 163.262 245.048 164.168C265.688 143.502 282.709 122.868 298.853 94.6263C299.326 92.9578 299.406 92.7459 299.971 91.2492C300.011 91.1456 300.052 91.0359 300.096 90.9191C299.817 89.7647 299.107 88.3516 298.153 86.9636C297.318 85.7498 296.416 84.7273 295.711 84.076C292.771 84.4659 288.409 85.8945 283.188 88.0728C277.558 90.4222 271.151 93.5469 264.869 96.864C252.268 103.519 240.416 110.817 236.442 114.04C225.521 123.278 217.521 131.091 210.65 137.801C207.943 140.445 205.41 142.918 202.943 145.24C194.223 153.448 186.407 159.671 174.921 164.352C167.211 167.494 158.956 170.27 151.698 172.263C144.505 174.238 138.097 175.5 134.166 175.5C132.44 175.5 130.825 175.581 129.195 175.663C128.458 175.7 127.718 175.737 126.963 175.767C124.592 175.861 122.174 175.875 119.672 175.513C114.569 174.774 109.388 172.508 103.313 166.762C102.913 166.384 102.687 165.859 102.687 165.309C102.687 158.377 105.374 151.468 107.706 145.472C108.027 144.648 108.34 143.841 108.64 143.053C109.914 139.701 110.929 136.716 111.304 134.058C111.489 132.743 111.51 131.56 111.345 130.489C107.592 134.494 103.174 136.34 99.2828 137.797C98.8698 137.951 98.4668 138.1 98.0735 138.245C96.1763 138.946 94.5025 139.564 92.9991 140.351C91.2382 141.273 89.8752 142.351 88.9089 143.876C88.4571 144.59 87.6057 144.942 86.7817 144.758C82.4024 143.775 78.4968 144.46 74.0704 145.236C73.5787 145.322 73.0807 145.41 72.5748 145.496C68.5848 146.176 64.2639 146.743 59.3433 145.758C59.8947 146.666 60.6232 147.567 61.5231 148.477C63.4801 150.457 66.1026 152.335 69.0921 154.302C70.0375 154.924 71.022 155.555 72.0279 156.199C77.2081 159.52 82.9539 163.202 86.8181 167.862C87.5232 168.713 87.4054 169.974 86.5552 170.679C85.7049 171.384 84.444 171.266 83.739 170.416C80.3109 166.281 75.2127 163.005 70.0276 159.673C68.9822 159.001 67.9333 158.327 66.8938 157.644C63.8789 155.66 60.9519 153.589 58.6785 151.289C56.3958 148.98 54.6298 146.3 54.1849 143.08C54.0893 142.388 54.3616 141.696 54.9032 141.255C55.4448 140.814 56.1773 140.688 56.8355 140.921C62.4017 142.899 67.0744 142.376 71.9023 141.553C72.3976 141.468 72.8974 141.38 73.402 141.29C77.3822 140.585 81.6566 139.828 86.3426 140.599C87.6933 138.92 89.366 137.738 91.1439 136.807C92.8975 135.889 94.8631 135.165 96.7629 134.465C97.1387 134.326 97.5119 134.188 97.8805 134.05C102.443 132.342 106.91 130.366 110.315 125.397C110.695 124.843 111.326 124.517 111.997 124.528C112.667 124.538 113.288 124.884 113.65 125.449C115.451 128.265 115.713 131.434 115.264 134.617C114.82 137.764 113.652 141.123 112.379 144.474C112.065 145.301 111.744 146.129 111.423 146.958C109.177 152.757 106.909 158.613 106.702 164.452C111.974 169.262 116.238 170.974 120.246 171.555C122.381 171.864 124.509 171.861 126.805 171.77C127.474 171.744 128.167 171.709 128.879 171.673C130.555 171.589 132.337 171.5 134.166 171.5C137.513 171.5 143.47 170.374 150.639 168.405C157.745 166.454 165.85 163.73 173.411 160.648C184.245 156.232 191.644 150.382 200.202 142.328C202.592 140.078 205.079 137.649 207.758 135.033C214.658 128.294 222.828 120.316 233.874 110.973C233.885 110.964 233.895 110.956 233.905 110.948C238.195 107.462 250.367 99.9989 263.002 93.3269C269.346 89.9766 275.868 86.793 281.648 84.3813C287.355 81.9998 292.567 80.2707 296.198 80.0053ZM295.33 108.303C280.234 132.388 264.09 151.039 244.913 169.941C245.051 172.427 245.429 174.652 245.879 176.805C246.048 177.611 246.233 178.433 246.42 179.263C246.773 180.832 247.133 182.431 247.401 184.006C247.427 184.163 247.453 184.321 247.478 184.48C253.147 180.754 258.905 175.122 264.597 166.593C266.181 164.22 267.604 162.109 268.913 160.168C276.327 149.173 280.051 143.648 288.243 127.077C291.814 119.854 293.821 113.814 295.33 108.303ZM250.806 135.729C251.542 136.553 251.47 137.817 250.646 138.553L244.208 144.298C243.384 145.034 242.119 144.962 241.384 144.138C240.648 143.314 240.72 142.049 241.544 141.314L247.982 135.568C248.806 134.833 250.071 134.905 250.806 135.729Z" fill="white"/>
<path d="M200.032 227.488H195.68C195.616 214.88 195.488 206.24 195.296 198.88H199.904C200.096 206.752 200.544 215.968 200.032 227.488ZM200.16 191.264C197.408 191.328 196.512 191.52 194.784 191.264C194.72 189.28 194.784 186.656 194.784 185.376C196.384 185.312 198.432 185.312 200.032 185.504C200.224 188.128 200.16 189.152 200.16 191.264Z" fill="white"/>
<path d="M169.667 198.496C172.291 198.496 177.155 197.472 180.035 202.144L180.163 196.256C179.971 191.904 180.291 182.496 180.291 178.016L184.899 178.144C184.195 191.392 184.067 198.176 184.067 209.632C184.067 215.712 184.515 222.368 184.515 228.448H180.035L180.291 223.968C179.075 226.848 176.195 228.704 172.035 228.448C167.235 228.32 164.227 228.768 161.923 222.944C160.579 216.544 160.451 203.808 163.459 200.992C164.931 199.52 167.043 198.496 169.667 198.496ZM172.291 202.784C169.155 202.592 166.915 203.232 165.955 205.344C164.931 207.392 165.315 211.488 165.315 213.216C165.059 218.912 165.315 223.072 167.811 224.096C169.539 224.672 170.819 224.928 171.715 224.8C172.675 224.736 173.699 224.544 174.915 224.224C175.939 223.968 180.163 221.088 180.035 214.752C180.035 212.256 180.227 210.016 179.523 207.968C178.883 205.6 175.683 202.784 172.291 202.784Z" fill="white"/>
<path d="M142.963 222.816C146.099 221.088 148.659 217.76 148.723 213.088C148.723 208.736 146.739 204.64 141.875 204.128C138.483 203.744 134.259 206.048 133.363 210.272C132.979 214.048 132.915 218.464 135.859 222.112C137.651 224.032 141.171 223.84 142.963 222.816ZM145.203 226.72C140.787 228.64 136.051 227.616 133.491 225.952C130.611 223.84 128.051 218.272 129.459 209.632C130.995 200.672 140.147 198.688 144.243 200.032C149.299 201.312 152.819 207.136 152.819 212.64C152.755 219.488 149.747 224.736 145.203 226.72Z" fill="white"/>
<path d="M110.498 222.816C113.634 221.088 116.194 217.76 116.258 213.088C116.258 208.736 114.274 204.64 109.41 204.128C106.018 203.744 101.794 206.048 100.898 210.272C100.514 214.048 100.45 218.464 103.394 222.112C105.186 224.032 108.706 223.84 110.498 222.816ZM112.738 226.72C108.322 228.64 103.586 227.616 101.026 225.952C98.1458 223.84 95.5858 218.272 96.9938 209.632C98.5298 200.672 107.682 198.688 111.778 200.032C116.834 201.312 120.354 207.136 120.354 212.64C120.29 219.488 117.282 224.736 112.738 226.72Z" fill="white"/>
<path d="M72.782 203.744C73.55 200.608 76.43 200.608 79.246 200.48C83.022 200.48 87.246 200.864 87.502 205.28C87.95 212.64 88.398 220 88.142 227.616L83.918 227.744C84.046 219.936 83.79 212.192 83.79 208.48C83.662 205.408 83.982 203.872 79.758 203.872C74.766 203.872 74.894 206.56 74.894 210.464C75.15 216.352 75.022 220.32 74.894 227.744L70.926 227.936C70.926 220.064 71.054 213.216 70.798 209.632C70.542 205.024 70.286 204.896 65.422 204.896C61.326 204.768 60.814 204.896 60.686 208.608V213.728C60.494 219.808 60.558 221.536 60.558 227.744L56.334 227.488C56.334 221.28 56.59 219.424 56.59 213.216C56.718 208.352 56.334 202.144 56.462 198.88L60.302 198.624C60.302 199.648 60.43 201.312 60.43 202.528C61.198 201.76 61.902 200.544 64.526 200.736C67.086 200.736 72.078 200.352 72.782 203.744Z" fill="white"/>
<path d="M45.424 182.304C42.8 181.28 36.208 180.64 33.456 181.024C27.952 181.28 27.824 186.144 28.208 193.12C28.72 202.208 47.152 195.744 47.408 206.112C47.536 213.152 48.048 221.664 45.424 224.992C42.224 228.512 34.736 227.68 32.304 227.488C29.232 227.296 22.832 227.808 22.32 223.2C22.064 219.872 22 220.064 22 216.352H26.608C26.608 221.152 26.672 218.784 26.864 221.472C27.056 224.544 36.464 223.264 39.472 223.072C44.208 222.88 43.12 211.808 42.928 207.84C42.928 200.864 23.792 205.408 23.728 195.36C23.728 187.04 21.744 177.888 29.68 177.056C31.856 176.736 42.608 176.608 45.552 178.4L45.424 182.304Z" fill="white"/>
</svg>
